<?xml version="1.0" encoding="UTF-8" standalone="no"?><!DOCTYPE svg PUBLIC "-//W3C//DTD SVG 1.1//EN" "http://www.w3.org/Graphics/SVG/1.1/DTD/svg11.dtd"><svg width="100%" height="100%" viewBox="0 0 104 23" version="1.1" xmlns="http://www.w3.org/2000/svg" xmlns:xlink="http://www.w3.org/1999/xlink" xml:space="preserve" xmlns:serif="http://www.serif.com/" style="fill-rule:evenodd;clip-rule:evenodd;stroke-linejoin:round;stroke-miterlimit:2;"><g id="Claim_und_Logo"><g><path id="Path" d="M0,8.284l0,-8.284l1.372,0l0,7.119l3.434,0l0,1.173l-4.806,0l0,-0.008Z" style="fill:#fff;fill-rule:nonzero;"/><path id="Shape" d="M10.681,5.733l-3.92,0c0.009,0.361 0.066,0.665 0.165,0.911c0.238,0.582 0.674,0.877 1.29,0.877c0.197,0 0.378,-0.032 0.542,-0.09c0.271,-0.107 0.452,-0.32 0.534,-0.64l1.232,0c-0.057,0.296 -0.164,0.558 -0.328,0.771c-0.452,0.607 -1.126,0.903 -2.03,0.903c-0.854,0 -1.52,-0.288 -2.012,-0.87c-0.461,-0.549 -0.691,-1.247 -0.691,-2.108c0,-0.877 0.239,-1.607 0.715,-2.19c0.485,-0.607 1.126,-0.902 1.914,-0.902c0.387,0 0.74,0.074 1.069,0.23c0.665,0.311 1.117,0.902 1.355,1.763c0.115,0.402 0.165,0.845 0.165,1.345Zm-1.299,-0.853c-0.024,-0.328 -0.098,-0.607 -0.221,-0.844c-0.247,-0.468 -0.6,-0.698 -1.077,-0.698c-0.205,0 -0.386,0.05 -0.55,0.14c-0.411,0.229 -0.666,0.697 -0.748,1.402l2.596,0Z" style="fill:#fff;fill-rule:nonzero;"/><path id="Path1" serif:id="Path" d="M11.453,3.511l0,-0.944l0.912,0l0,-0.713l0.895,-1.189l0.329,0l0,1.902l1.068,0l0,0.944l-1.06,0l0,2.985c0,0.336 0.025,0.55 0.074,0.64c0.082,0.156 0.255,0.229 0.51,0.229c0.131,0 0.295,-0.024 0.476,-0.082l0,1.001c-0.222,0.082 -0.509,0.131 -0.863,0.131c-0.164,0 -0.32,-0.016 -0.468,-0.041c-0.46,-0.082 -0.748,-0.32 -0.854,-0.713c-0.058,-0.214 -0.091,-0.558 -0.091,-1.034l0,-3.108l-0.928,0l0,-0.008Z" style="fill:#fff;fill-rule:nonzero;"/><path id="Path2" serif:id="Path" d="M17.483,0l0,1.042c0,0.451 -0.041,0.804 -0.131,1.066c-0.082,0.263 -0.23,0.484 -0.444,0.673c-0.238,0.221 -0.55,0.369 -0.92,0.459l0,-0.722c0.435,-0.106 0.657,-0.451 0.674,-1.017l-0.674,0l0,-1.493l1.495,0l0,-0.008Z" style="fill:#fff;fill-rule:nonzero;"/><path id="Path3" serif:id="Path" d="M17.845,6.66l1.29,0c0.049,0.304 0.164,0.525 0.337,0.664c0.18,0.14 0.435,0.214 0.764,0.214c0.148,0 0.295,-0.017 0.427,-0.058c0.394,-0.106 0.6,-0.361 0.6,-0.746c0,-0.131 -0.033,-0.254 -0.091,-0.361c-0.107,-0.189 -0.312,-0.336 -0.616,-0.435c-0.14,-0.041 -0.452,-0.123 -0.928,-0.221c-1.126,-0.254 -1.693,-0.804 -1.693,-1.665c0,-0.492 0.189,-0.886 0.575,-1.198c0.386,-0.311 0.904,-0.467 1.545,-0.467c0.879,0 1.512,0.254 1.906,0.763c0.181,0.229 0.288,0.516 0.32,0.877l-1.289,0c-0.074,-0.484 -0.403,-0.721 -0.97,-0.721c-0.123,0 -0.238,0.016 -0.353,0.041c-0.165,0.041 -0.288,0.123 -0.386,0.246c-0.099,0.114 -0.14,0.254 -0.14,0.41c0,0.106 0.025,0.205 0.066,0.295c0.057,0.123 0.156,0.213 0.295,0.279c0.14,0.065 0.37,0.131 0.691,0.205c0.673,0.148 1.133,0.287 1.388,0.41c0.616,0.312 0.928,0.787 0.928,1.419c0,0.549 -0.213,0.992 -0.64,1.345c-0.403,0.336 -0.953,0.5 -1.668,0.5c-1.389,0.009 -2.177,-0.59 -2.358,-1.796Z" style="fill:#fff;fill-rule:nonzero;"/><path id="Shape1" serif:id="Shape" d="M27.646,10.441l0,-7.874l1.233,0l0,0.64c0.394,-0.549 0.969,-0.82 1.725,-0.82c0.395,0 0.748,0.082 1.06,0.246c0.46,0.246 0.813,0.656 1.068,1.23c0.197,0.451 0.296,0.968 0.296,1.559c0,0.935 -0.23,1.665 -0.69,2.214c-0.469,0.55 -1.068,0.82 -1.816,0.82c-0.205,0 -0.403,-0.024 -0.6,-0.082c-0.443,-0.123 -0.797,-0.361 -1.051,-0.73l0,2.789l-1.225,0l0,0.008Zm2.679,-7.029c-0.222,0 -0.427,0.049 -0.608,0.148c-0.567,0.303 -0.846,0.918 -0.846,1.845c0,0.337 0.041,0.656 0.115,0.935c0.082,0.337 0.246,0.599 0.493,0.804c0.246,0.205 0.525,0.303 0.846,0.303c0.435,0 0.772,-0.172 1.027,-0.508c0.279,-0.369 0.411,-0.869 0.411,-1.485c0,-0.582 -0.124,-1.066 -0.37,-1.443c-0.247,-0.402 -0.608,-0.599 -1.068,-0.599Z" style="fill:#fff;fill-rule:nonzero;"/><path id="Shape2" serif:id="Shape" d="M36.939,2.387c0.394,0 0.739,0.057 1.043,0.172c0.608,0.238 1.068,0.656 1.356,1.255c0.222,0.443 0.328,0.984 0.328,1.608c0,0.418 -0.057,0.82 -0.172,1.205c-0.197,0.673 -0.592,1.181 -1.183,1.509c-0.395,0.222 -0.846,0.329 -1.372,0.329c-0.386,0 -0.74,-0.058 -1.068,-0.181c-0.6,-0.221 -1.044,-0.631 -1.348,-1.247c-0.23,-0.467 -0.337,-1.017 -0.337,-1.648c0,-0.829 0.222,-1.518 0.666,-2.067c0.501,-0.623 1.191,-0.935 2.087,-0.935Zm-0.008,1.025c-0.214,0 -0.403,0.041 -0.576,0.123c-0.616,0.287 -0.928,0.911 -0.928,1.862c0,0.328 0.033,0.632 0.107,0.91c0.107,0.402 0.312,0.706 0.616,0.903c0.238,0.155 0.501,0.229 0.789,0.229c0.419,0 0.764,-0.147 1.019,-0.451c0.303,-0.361 0.46,-0.894 0.46,-1.583c0,-0.631 -0.132,-1.132 -0.411,-1.484c-0.263,-0.337 -0.625,-0.509 -1.076,-0.509Z" style="fill:#fff;fill-rule:nonzero;"/><path id="Path4" serif:id="Path" d="M42.082,8.284l-1.676,-5.717l1.38,0l1.011,4.175l0.903,-4.175l1.299,0l0.944,4.134l1.019,-4.134l1.323,0l-1.676,5.717l-1.323,0l-0.953,-4.101l-0.92,4.101l-1.331,0Z" style="fill:#fff;fill-rule:nonzero;"/><path id="Shape3" serif:id="Shape" d="M54.242,5.733l-3.919,0c0.008,0.361 0.065,0.665 0.164,0.911c0.238,0.582 0.665,0.877 1.29,0.877c0.197,0 0.378,-0.032 0.542,-0.09c0.271,-0.107 0.452,-0.32 0.534,-0.64l1.232,0c-0.057,0.296 -0.164,0.558 -0.328,0.771c-0.452,0.607 -1.126,0.903 -2.03,0.903c-0.854,0 -1.519,-0.288 -2.012,-0.87c-0.461,-0.549 -0.691,-1.247 -0.691,-2.108c0,-0.877 0.239,-1.607 0.715,-2.19c0.485,-0.607 1.126,-0.902 1.915,-0.902c0.386,0 0.739,0.074 1.068,0.23c0.665,0.311 1.117,0.902 1.355,1.763c0.115,0.402 0.165,0.845 0.165,1.345Zm-1.299,-0.853c-0.024,-0.328 -0.098,-0.607 -0.221,-0.844c-0.247,-0.468 -0.6,-0.698 -1.077,-0.698c-0.205,0 -0.386,0.05 -0.55,0.14c-0.411,0.229 -0.666,0.697 -0.748,1.402l2.596,0Z" style="fill:#fff;fill-rule:nonzero;"/><path id="Path5" serif:id="Path" d="M55.72,8.284l0,-5.717l1.184,0l0,0.944c0.386,-0.747 0.969,-1.124 1.741,-1.124c0.041,0 0.132,0.008 0.271,0.008l0,1.247c-0.213,-0.025 -0.378,-0.033 -0.476,-0.033c-0.592,0 -1.019,0.271 -1.282,0.82c-0.139,0.295 -0.213,0.804 -0.213,1.542l0,2.313l-1.225,0Z" style="fill:#fff;fill-rule:nonzero;"/></g><g><path id="Path6" serif:id="Path" d="M0,20.136l0,-8.292l1.224,0l0,3.239c0.403,-0.565 0.961,-0.853 1.66,-0.853c0.377,0 0.714,0.074 1.002,0.222c0.296,0.148 0.509,0.361 0.665,0.623c0.165,0.296 0.247,0.747 0.247,1.37l0,3.683l-1.224,0l0,-3.494c0,-0.46 -0.058,-0.771 -0.165,-0.952c-0.172,-0.287 -0.46,-0.435 -0.871,-0.435c-0.156,0 -0.295,0.017 -0.419,0.058c-0.336,0.115 -0.583,0.353 -0.739,0.713c-0.107,0.247 -0.156,0.689 -0.156,1.346l0,2.755l-1.224,0l0,0.017Z" style="fill:#fff;fill-rule:nonzero;"/><path id="Shape4" serif:id="Shape" d="M6.564,13.09l0,-1.246l1.298,0l0,1.246l-1.298,0Zm0.041,7.046l0,-5.717l1.225,0l0,5.717l-1.225,0Z" style="fill:#fff;fill-rule:nonzero;"/><path id="Shape5" serif:id="Shape" d="M9.571,20.784l1.266,0c0.032,0.147 0.082,0.262 0.156,0.328c0.197,0.18 0.517,0.271 0.961,0.271c0.238,0 0.444,-0.033 0.616,-0.107c0.501,-0.205 0.756,-0.787 0.756,-1.739l0,-0.295c-0.353,0.566 -0.895,0.845 -1.61,0.845c-0.715,0 -1.29,-0.255 -1.717,-0.763c-0.436,-0.525 -0.649,-1.23 -0.649,-2.108c0,-0.91 0.23,-1.632 0.69,-2.165c0.46,-0.542 1.051,-0.812 1.791,-0.812c0.23,0 0.443,0.032 0.641,0.09c0.394,0.123 0.723,0.369 0.986,0.754l0,-0.664l1.15,0l0,4.634c0,0.583 -0.033,1.042 -0.099,1.37c-0.066,0.328 -0.189,0.623 -0.361,0.877c-0.444,0.665 -1.175,0.993 -2.178,0.993c-0.747,0 -1.322,-0.131 -1.725,-0.386c-0.411,-0.254 -0.633,-0.631 -0.674,-1.123Zm2.391,-5.512c-0.205,0 -0.394,0.041 -0.558,0.131c-0.543,0.279 -0.806,0.878 -0.806,1.797c0,0.303 0.033,0.59 0.107,0.844c0.091,0.304 0.255,0.558 0.485,0.747c0.23,0.188 0.485,0.279 0.772,0.279c0.403,0 0.723,-0.156 0.961,-0.476c0.288,-0.369 0.436,-0.861 0.436,-1.468c0,-0.648 -0.164,-1.14 -0.485,-1.477c-0.246,-0.254 -0.55,-0.377 -0.912,-0.377Z" style="fill:#fff;fill-rule:nonzero;"/><path id="Path7" serif:id="Path" d="M16.358,20.136l0,-8.292l1.224,0l0,3.239c0.403,-0.565 0.961,-0.853 1.66,-0.853c0.377,0 0.714,0.074 1.002,0.222c0.296,0.148 0.509,0.361 0.665,0.623c0.165,0.296 0.247,0.747 0.247,1.37l0,3.683l-1.224,0l0,-3.494c0,-0.46 -0.058,-0.771 -0.165,-0.952c-0.172,-0.287 -0.46,-0.435 -0.871,-0.435c-0.156,0 -0.295,0.017 -0.419,0.058c-0.336,0.115 -0.583,0.353 -0.739,0.713c-0.107,0.247 -0.156,0.689 -0.156,1.346l0,2.755l-1.224,0l0,0.017Z" style="fill:#fff;fill-rule:nonzero;"/><path id="Shape6" serif:id="Shape" d="M27.745,17.585l-3.919,0c0.008,0.361 0.066,0.664 0.164,0.91c0.239,0.583 0.674,0.878 1.29,0.878c0.197,0 0.378,-0.033 0.543,-0.09c0.271,-0.107 0.451,-0.32 0.534,-0.64l1.232,0c-0.058,0.304 -0.164,0.558 -0.329,0.771c-0.452,0.607 -1.125,0.902 -2.029,0.902c-0.854,0 -1.52,-0.287 -2.013,-0.869c-0.46,-0.55 -0.69,-1.247 -0.69,-2.108c0,-0.878 0.238,-1.608 0.715,-2.19c0.484,-0.607 1.125,-0.902 1.914,-0.902c0.386,0 0.739,0.074 1.068,0.23c0.666,0.311 1.117,0.902 1.356,1.763c0.107,0.402 0.164,0.845 0.164,1.345Zm-1.306,-0.853c-0.025,-0.328 -0.099,-0.607 -0.222,-0.845c-0.247,-0.467 -0.6,-0.697 -1.076,-0.697c-0.206,0 -0.387,0.049 -0.551,0.14c-0.411,0.229 -0.665,0.697 -0.748,1.402l2.597,0Z" style="fill:#fff;fill-rule:nonzero;"/><path id="Path8" serif:id="Path" d="M29.224,20.136l0,-5.717l1.183,0l0,0.943c0.386,-0.746 0.97,-1.123 1.742,-1.123c0.041,0 0.131,0.008 0.271,0.008l0,1.247c-0.214,-0.025 -0.378,-0.041 -0.477,-0.041c-0.591,0 -1.018,0.27 -1.281,0.82c-0.14,0.295 -0.214,0.804 -0.214,1.542l0,2.313l-1.224,0l0,0.008Z" style="fill:#fff;fill-rule:nonzero;"/><path id="Shape7" serif:id="Shape" d="M37.202,22.293l0,-7.874l1.232,0l0,0.64c0.394,-0.55 0.97,-0.82 1.725,-0.82c0.395,0 0.748,0.082 1.06,0.246c0.46,0.246 0.814,0.656 1.068,1.23c0.198,0.451 0.296,0.968 0.296,1.558c0,0.935 -0.23,1.665 -0.69,2.215c-0.468,0.549 -1.068,0.82 -1.816,0.82c-0.205,0 -0.402,-0.025 -0.6,-0.082c-0.443,-0.123 -0.796,-0.361 -1.051,-0.73l0,2.789l-1.224,0l0,0.008Zm2.686,-7.037c-0.222,0 -0.427,0.049 -0.608,0.147c-0.567,0.304 -0.846,0.919 -0.846,1.846c0,0.336 0.041,0.648 0.115,0.935c0.082,0.336 0.247,0.599 0.493,0.804c0.246,0.205 0.526,0.303 0.846,0.303c0.436,0 0.773,-0.172 1.027,-0.508c0.28,-0.37 0.411,-0.87 0.411,-1.485c0,-0.582 -0.123,-1.066 -0.37,-1.444c-0.254,-0.393 -0.608,-0.598 -1.068,-0.598Z" style="fill:#fff;fill-rule:nonzero;"/><path id="Shape8" serif:id="Shape" d="M48.959,17.585l-3.919,0c0.008,0.361 0.065,0.664 0.164,0.91c0.238,0.583 0.674,0.878 1.29,0.878c0.197,0 0.378,-0.033 0.542,-0.09c0.271,-0.107 0.452,-0.32 0.534,-0.64l1.233,0c-0.058,0.304 -0.165,0.558 -0.329,0.771c-0.452,0.607 -1.126,0.902 -2.029,0.902c-0.855,0 -1.52,-0.287 -2.013,-0.869c-0.46,-0.55 -0.69,-1.247 -0.69,-2.108c0,-0.878 0.238,-1.608 0.714,-2.19c0.485,-0.607 1.126,-0.902 1.915,-0.902c0.386,0 0.739,0.074 1.068,0.23c0.665,0.311 1.117,0.902 1.355,1.763c0.107,0.402 0.165,0.845 0.165,1.345Zm-1.307,-0.853c-0.024,-0.328 -0.098,-0.607 -0.221,-0.845c-0.247,-0.467 -0.6,-0.697 -1.077,-0.697c-0.205,0 -0.386,0.049 -0.55,0.14c-0.411,0.229 -0.666,0.697 -0.748,1.402l2.596,0Z" style="fill:#fff;fill-rule:nonzero;"/><path id="Path9" serif:id="Path" d="M50.438,20.136l0,-5.717l1.183,0l0,0.943c0.386,-0.746 0.969,-1.123 1.741,-1.123c0.042,0 0.132,0.008 0.272,0.008l0,1.247c-0.214,-0.025 -0.378,-0.041 -0.477,-0.041c-0.592,0 -1.019,0.27 -1.282,0.82c-0.139,0.295 -0.213,0.804 -0.213,1.542l0,2.313l-1.224,0l0,0.008Z" style="fill:#fff;fill-rule:nonzero;"/><path id="Path10" serif:id="Path" d="M55.351,20.136l0,-4.774l-0.912,0l0,-0.943l0.903,0l0,-0.787c0,-0.665 0.107,-1.14 0.313,-1.411c0.287,-0.377 0.731,-0.566 1.347,-0.566c0.173,0 0.394,0.025 0.666,0.082l0,1.017c-0.181,-0.049 -0.337,-0.082 -0.469,-0.082c-0.148,0 -0.271,0.025 -0.369,0.082c-0.173,0.09 -0.263,0.394 -0.263,0.902l0,0.763l1.027,0l0,0.943l-1.019,0l0,4.774l-1.224,0Z" style="fill:#fff;fill-rule:nonzero;"/><path id="Shape9" serif:id="Shape" d="M61.151,14.239c0.395,0 0.74,0.057 1.044,0.18c0.608,0.238 1.068,0.656 1.355,1.247c0.222,0.443 0.329,0.984 0.329,1.607c0,0.419 -0.058,0.821 -0.173,1.206c-0.197,0.681 -0.591,1.181 -1.183,1.509c-0.394,0.222 -0.846,0.328 -1.372,0.328c-0.386,0 -0.739,-0.057 -1.068,-0.18c-0.6,-0.222 -1.043,-0.632 -1.347,-1.247c-0.23,-0.467 -0.337,-1.017 -0.337,-1.648c0,-0.829 0.222,-1.518 0.665,-2.067c0.501,-0.624 1.2,-0.935 2.087,-0.935Zm-0.008,1.017c-0.214,0 -0.403,0.041 -0.575,0.123c-0.616,0.287 -0.929,0.91 -0.929,1.862c0,0.328 0.033,0.631 0.107,0.91c0.107,0.402 0.312,0.705 0.616,0.902c0.239,0.156 0.502,0.23 0.789,0.23c0.419,0 0.764,-0.148 1.019,-0.451c0.304,-0.361 0.46,-0.894 0.46,-1.583c0,-0.64 -0.131,-1.132 -0.411,-1.485c-0.263,-0.328 -0.624,-0.508 -1.076,-0.508Z" style="fill:#fff;fill-rule:nonzero;"/><path id="Path11" serif:id="Path" d="M65.382,20.136l0,-5.717l1.183,0l0,0.943c0.387,-0.746 0.97,-1.123 1.742,-1.123c0.041,0 0.132,0.008 0.271,0.008l0,1.247c-0.213,-0.025 -0.378,-0.041 -0.476,-0.041c-0.592,0 -1.019,0.27 -1.282,0.82c-0.139,0.295 -0.213,0.804 -0.213,1.542l0,2.313l-1.225,0l0,0.008Z" style="fill:#fff;fill-rule:nonzero;"/><path id="Path12" serif:id="Path" d="M69.679,20.136l0,-5.717l1.183,0l0,0.689c0.436,-0.582 0.986,-0.869 1.635,-0.869c0.206,0 0.403,0.032 0.592,0.09c0.394,0.123 0.69,0.402 0.879,0.828c0.436,-0.607 1.011,-0.918 1.725,-0.918c0.272,0 0.518,0.049 0.765,0.147c0.361,0.14 0.624,0.361 0.796,0.656c0.173,0.296 0.255,0.689 0.255,1.19l0,3.904l-1.224,0l0,-3.519c0,-0.41 -0.033,-0.697 -0.107,-0.861c-0.14,-0.328 -0.411,-0.5 -0.821,-0.5c-0.51,0 -0.855,0.238 -1.044,0.721c-0.074,0.197 -0.115,0.558 -0.115,1.083l0,3.076l-1.224,0l0,-3.593c0,-0.484 -0.066,-0.803 -0.189,-0.976c-0.156,-0.205 -0.378,-0.311 -0.682,-0.311c-0.238,0 -0.452,0.065 -0.641,0.205c-0.189,0.131 -0.337,0.32 -0.427,0.541c-0.09,0.222 -0.131,0.574 -0.131,1.058l0,3.076l-1.225,0Z" style="fill:#fff;fill-rule:nonzero;"/><path id="Shape10" serif:id="Shape" d="M84.296,19.275l0,0.861c-0.247,0.098 -0.518,0.156 -0.814,0.156c-0.131,0 -0.246,-0.017 -0.353,-0.041c-0.247,-0.066 -0.427,-0.271 -0.534,-0.615c-0.444,0.451 -1.027,0.68 -1.75,0.68c-0.263,0 -0.51,-0.033 -0.74,-0.106c-0.361,-0.107 -0.649,-0.296 -0.862,-0.55c-0.23,-0.279 -0.345,-0.615 -0.345,-1.017c0,-0.599 0.238,-1.066 0.714,-1.411c0.28,-0.196 0.608,-0.336 0.995,-0.41c0.378,-0.074 1.01,-0.123 1.889,-0.147l0,-0.476c0,-0.673 -0.361,-1.017 -1.092,-1.017c-0.37,0 -0.625,0.049 -0.773,0.148c-0.148,0.098 -0.238,0.278 -0.271,0.541l-1.232,0c0.065,-1.091 0.854,-1.632 2.358,-1.632c0.238,0 0.452,0.016 0.657,0.057c0.707,0.131 1.183,0.443 1.413,0.927c0.074,0.148 0.123,0.32 0.148,0.5c0.025,0.189 0.033,0.492 0.033,0.919l0,2.165c0,0.213 0.016,0.353 0.057,0.427c0.041,0.073 0.124,0.106 0.239,0.106c0.082,0 0.164,-0.024 0.263,-0.065Zm-1.8,-1.895c-0.55,0.025 -0.977,0.074 -1.29,0.148c-0.312,0.073 -0.558,0.196 -0.739,0.369c-0.197,0.197 -0.296,0.426 -0.296,0.689c0,0.246 0.09,0.443 0.255,0.582c0.172,0.148 0.411,0.213 0.706,0.213c0.156,0 0.304,-0.024 0.428,-0.065c0.271,-0.091 0.493,-0.279 0.665,-0.558c0.173,-0.279 0.263,-0.591 0.263,-0.927l0,-0.451l0.008,0Z" style="fill:#fff;fill-rule:nonzero;"/><path id="Path13" serif:id="Path" d="M85.659,20.136l0,-5.717l1.192,0l0,0.722c0.41,-0.599 0.986,-0.902 1.725,-0.902c0.312,0 0.6,0.057 0.871,0.18c0.37,0.164 0.633,0.402 0.78,0.705c0.148,0.304 0.222,0.763 0.222,1.354l0,3.658l-1.224,0l0,-3.33c0,-0.443 -0.033,-0.763 -0.098,-0.96c-0.058,-0.18 -0.165,-0.32 -0.321,-0.418c-0.172,-0.107 -0.37,-0.164 -0.6,-0.164c-0.263,0 -0.493,0.066 -0.706,0.205c-0.206,0.139 -0.362,0.32 -0.46,0.549c-0.107,0.271 -0.165,0.689 -0.165,1.247l0,2.871l-1.216,0Z" style="fill:#fff;fill-rule:nonzero;"/><path id="Path14" serif:id="Path" d="M95.781,18.11l1.282,0c-0.082,0.59 -0.287,1.066 -0.616,1.435c-0.452,0.509 -1.076,0.763 -1.865,0.763c-0.772,0 -1.389,-0.238 -1.865,-0.722c-0.542,-0.557 -0.805,-1.312 -0.805,-2.272c0,-0.902 0.23,-1.624 0.69,-2.165c0.509,-0.607 1.183,-0.91 2.037,-0.91c0.658,0 1.192,0.18 1.611,0.525c0.419,0.352 0.665,0.828 0.731,1.435l-1.29,0c-0.057,-0.304 -0.189,-0.533 -0.378,-0.705c-0.189,-0.164 -0.427,-0.247 -0.723,-0.247c-0.468,0 -0.821,0.197 -1.076,0.583c-0.238,0.369 -0.362,0.853 -0.362,1.46c0,0.615 0.132,1.107 0.386,1.476c0.239,0.345 0.576,0.517 1.019,0.517c0.189,0 0.354,-0.033 0.501,-0.099c0.403,-0.164 0.641,-0.525 0.723,-1.074Z" style="fill:#fff;fill-rule:nonzero;"/><path id="Shape11" serif:id="Shape" d="M103.357,17.585l-3.919,0c0.008,0.361 0.065,0.664 0.164,0.91c0.238,0.583 0.674,0.878 1.29,0.878c0.197,0 0.378,-0.033 0.542,-0.09c0.271,-0.107 0.452,-0.32 0.534,-0.64l1.232,0c-0.057,0.304 -0.164,0.558 -0.328,0.771c-0.452,0.607 -1.126,0.902 -2.03,0.902c-0.854,0 -1.519,-0.287 -2.012,-0.869c-0.461,-0.55 -0.691,-1.247 -0.691,-2.108c0,-0.878 0.239,-1.608 0.715,-2.19c0.485,-0.607 1.126,-0.902 1.915,-0.902c0.386,0 0.739,0.074 1.068,0.23c0.665,0.311 1.117,0.902 1.355,1.763c0.107,0.402 0.165,0.845 0.165,1.345Zm-1.307,-0.853c-0.024,-0.328 -0.098,-0.607 -0.222,-0.845c-0.246,-0.467 -0.599,-0.697 -1.076,-0.697c-0.205,0 -0.386,0.049 -0.55,0.14c-0.411,0.229 -0.666,0.697 -0.748,1.402l2.596,0Z" style="fill:#fff;fill-rule:nonzero;"/></g></g></svg>
